<svg width="64px" height="64px" viewBox="0 0 24 24" fill="none" xmlns="http://www.w3.org/2000/svg">
    <path d="M16.97 5.76C16.92 5.64 16.86 5.53 16.79 5.42C15.1 2.58 11.52 1.25 8.47 2.54C5.42 3.83 3.57 6.99 3.89 10.26C4.3 14.5 8.11 18 12 18C15.56 18 18.65 14.94 19 11.5C19.03 11.33 19.05 11.17 19.06 11C18.99 9.01 18.42 7.07 16.97 5.76ZM12 16C9.24 16 6.52 13.76 6.14 10.74C5.9 8.9 6.89 7.15 8.47 6.45C10.05 5.75 11.91 6.18 13.06 7.45L10 10H14V6L15.79 7.79C16.93 8.93 17.59 10.4 17.79 11.93C17.45 14.76 14.92 16 12 16Z" fill="#388E3C"/>
</svg>
