<svg width="40px" height="40px" viewBox="0 0 24 24" fill="none" xmlns="http://www.w3.org/2000/svg">
    <path d="M12.04 2C6.5 2 2 6.5 2 12.04C2 14.58 2.86 17.02 4.46 18.99L3 22L6.18 21.06C8 22.04 10.05 22.57 12.04 22.57C17.57 22.57 22.07 18.07 22.07 12.54C22.07 7 17.57 2 12.04 2ZM12.04 20.07C10.34 20.07 8.68 19.62 7.24 18.79L7 18.64L4.91 19.21L5.49 17.17L5.32 16.94C4.07 15.18 3.43 13.04 3.43 10.82C3.43 6.5 7.14 2.79 11.46 2.79C15.78 2.79 19.49 6.5 19.49 10.82C19.49 15.14 15.78 18.85 12.04 18.85V20.07ZM16.04 14.86C15.67 14.66 14.28 13.96 14 13.86C13.72 13.76 13.54 13.72 13.36 13.96C13.18 14.2 12.73 14.65 12.56 14.84C12.38 15.02 12.2 15.05 11.96 14.94C11.72 14.83 10.85 14.54 9.99 13.68C9.13 12.82 8.84 11.94 8.73 11.7C8.62 11.46 8.65 11.28 8.83 11.1C9.01 10.92 9.47 10.47 9.57 10.29C9.67 10.11 9.67 9.93 9.57 9.75C9.47 9.57 9.08 8.54 8.88 8.1C8.68 7.66 8.48 7.73 8.3 7.73C8.12 7.73 7.92 7.73 7.72 7.73C7.52 7.73 7.28 7.79 7.06 8C6.84 8.21 6.32 8.67 6.32 9.61C6.32 10.55 6.94 11.45 7.07 11.63C7.2 11.81 8.5 13.88 10.36 14.97C12.22 16.06 12.58 16.04 13.2 15.96C13.82 15.88 14.74 15.32 14.9 14.94C15.06 14.56 15.06 14.33 15 14.26C14.94 14.19 14.41 13.96 14.04 13.76Z" fill="#25D366"/>
</svg>
